<?xml version="1.0" standalone="no"?><!DOCTYPE svg PUBLIC "-//W3C//DTD SVG 1.1//EN" "http://www.w3.org/Graphics/SVG/1.1/DTD/svg11.dtd"><svg class="icon" height="512" viewBox="0 0 1366 1024" version="1.1" xmlns="http://www.w3.org/2000/svg"><path d="M1361.068474 950.991388a33.396019 33.396019 0 0 0 1.373429-3.397431 74.165184 74.165184 0 0 0 2.602287-19.155725v-831.286178a85.224905 85.224905 0 0 0-37.444021-67.876323 151.149513 151.149513 0 0 0-90.429479-28.119159H128.524072A151.149513 151.149513 0 0 0 38.094593 29.275731a85.224905 85.224905 0 0 0-37.444021 67.876323v831.286178a74.165184 74.165184 0 0 0 2.602287 19.155725 33.396019 33.396019 0 0 0 1.373429 3.397431 75.755471 75.755471 0 0 0 6.072004 14.457151c0 0.506 0.650572 0.867429 0.939714 1.301143a98.597769 98.597769 0 0 0 26.456587 28.914302 123.680926 123.680926 0 0 0 17.782295 10.987435l1.228858 0.722857a142.981223 142.981223 0 0 0 18.722011 7.66229l3.108287 1.228858a145.655796 145.655796 0 0 0 19.011154 4.409431c1.734858 0 3.325145 0.939715 5.060002 1.156572a165.028378 165.028378 0 0 0 25.516872 1.951716h1108.935761a165.028378 165.028378 0 0 0 25.516872-1.951716c1.734858 0 3.325145-0.795143 5.132288-1.156572a147.318368 147.318368 0 0 0 18.938868-4.409431c1.156572 0 2.168573-0.867429 3.252859-1.301143a131.560073 131.560073 0 0 0 18.577439-7.590005l1.228858-0.722857a123.680926 123.680926 0 0 0 17.782295-10.987435 99.392913 99.392913 0 0 0 26.312015-28.914302c0-0.506 0.795143-0.939715 1.084286-1.518001a75.755471 75.755471 0 0 0 5.782861-14.240293z m-81.321474-126.283213l-416.004518-312.057603 416.004518-312.129889v624.187492zM98.380912 74.23747a50.600028 50.600028 0 0 1 30.14316-9.397148h1108.935761a50.600028 50.600028 0 0 1 30.14316 9.397148 26.673443 26.673443 0 0 1 0 45.034025l-554.431738 415.932232a54.431173 54.431173 0 0 1-60.286319 0L98.380912 119.271495a26.673443 26.673443 0 0 1 0-45.034025z m403.571368 438.413102L85.947762 824.78046V200.520683z m-373.428208 447.737964a54.937174 54.937174 0 0 1-16.408867-2.457716 45.540025 45.540025 0 0 1-13.734293-7.228575 32.600875 32.600875 0 0 1-9.108005-10.192292 24.938585 24.938585 0 0 1-3.325145-12.360864 28.191444 28.191444 0 0 1 12.288579-22.480869l464.002258-348.128195 30.14316 22.625442a159.606946 159.606946 0 0 0 180.714387 0l30.143159-22.625442 464.002259 348.128195a28.191444 28.191444 0 0 1 12.288579 22.480869 24.938585 24.938585 0 0 1-3.325145 12.360864 32.600875 32.600875 0 0 1-9.108005 10.192292 45.540025 45.540025 0 0 1-13.734294 7.228575 54.937174 54.937174 0 0 1-16.408866 2.457716H128.524072z" /></svg>